<?xml version="1.0" encoding="UTF-8" standalone="no"?>
<svg width="256.822mm" height="167.569mm"
 viewBox="0 0 728 475"
 xmlns="http://www.w3.org/2000/svg" xmlns:xlink="http://www.w3.org/1999/xlink"  version="1.2" baseProfile="tiny">
<title>Qt SVG Document</title>
<desc>Generated with Qt</desc>
<defs>
</defs>
<g fill="none" stroke="black" stroke-width="1" fill-rule="evenodd" stroke-linecap="square" stroke-linejoin="bevel" >

<g fill="none" stroke="#000000" stroke-opacity="1" stroke-width="1" stroke-linecap="square" stroke-linejoin="bevel" transform="matrix(1,0,0,1,0,0)"
font-family="Ubuntu" font-size="11" font-weight="400" font-style="normal" 
>
</g>

<g fill="none" stroke="#000000" stroke-opacity="1" stroke-width="1" stroke-linecap="square" stroke-linejoin="bevel" transform="matrix(1.00275,0,0,1.00275,0,0)"
font-family="Ubuntu" font-size="11" font-weight="400" font-style="normal" 
>
</g>

<g fill="none" stroke="#000000" stroke-opacity="1" stroke-width="1" stroke-linecap="round" stroke-linejoin="round" transform="matrix(1.00275,0,0,1.00275,0,0)"
font-family="Ubuntu" font-size="11" font-weight="400" font-style="normal" 
>
<polyline fill="none" vector-effect="none" points="45.5,442.5 51.5,442.5 " />
<polyline fill="none" vector-effect="none" points="704.5,442.5 698.5,442.5 " />
</g>

<g fill="none" stroke="#000000" stroke-opacity="1" stroke-width="1" stroke-linecap="square" stroke-linejoin="bevel" transform="matrix(1.00275,0,0,1.00275,0,0)"
font-family="Ubuntu" font-size="11" font-weight="400" font-style="normal" 
>
</g>

<g fill="none" stroke="#000000" stroke-opacity="1" stroke-width="1" stroke-linecap="square" stroke-linejoin="bevel" transform="matrix(1.00275,0,0,1.00275,16.0441,448.733)"
font-family="Ubuntu" font-size="11" font-weight="400" font-style="normal" 
>
</g>

<g fill="none" stroke="#000000" stroke-opacity="1" stroke-width="1" stroke-linecap="square" stroke-linejoin="bevel" transform="matrix(1.00275,0,0,1.00275,16.0441,448.733)"
font-family="Ubuntu" font-size="11" font-weight="400" font-style="normal" 
>
</g>

<g fill="none" stroke="#000000" stroke-opacity="1" stroke-width="1" stroke-linecap="square" stroke-linejoin="bevel" transform="matrix(1.00275,0,0,1.00275,16.0441,448.733)"
font-family="Ubuntu" font-size="11" font-weight="400" font-style="normal" 
>
</g>

<g fill="none" stroke="#000000" stroke-opacity="1" stroke-width="1" stroke-linecap="square" stroke-linejoin="bevel" transform="matrix(1.00275,0,0,1.00275,16.0441,448.733)"
font-family="Ubuntu" font-size="11" font-weight="400" font-style="normal" 
>
</g>

<g fill="none" stroke="#000000" stroke-opacity="1" stroke-width="1" stroke-linecap="square" stroke-linejoin="bevel" transform="matrix(1.00275,0,0,1.00275,16.0441,448.733)"
font-family="Ubuntu" font-size="11" font-weight="400" font-style="normal" 
>
</g>

<g fill="none" stroke="#000000" stroke-opacity="1" stroke-width="1" stroke-linecap="square" stroke-linejoin="bevel" transform="matrix(1.00275,0,0,1.00275,16.0441,448.733)"
font-family="Sans" font-size="9" font-weight="400" font-style="normal" 
>
<text fill="#000000" fill-opacity="1" stroke="none" xml:space="preserve" x="0" y="0" font-family="Sans" font-size="9" font-weight="400" font-style="normal" 
 >-1.5</text>
</g>

<g fill="none" stroke="#000000" stroke-opacity="1" stroke-width="1" stroke-linecap="square" stroke-linejoin="bevel" transform="matrix(1.00275,0,0,1.00275,16.0441,448.733)"
font-family="Ubuntu" font-size="11" font-weight="400" font-style="normal" 
>
</g>

<g fill="none" stroke="#000000" stroke-opacity="1" stroke-width="1" stroke-linecap="square" stroke-linejoin="bevel" transform="matrix(1.00275,0,0,1.00275,0,0)"
font-family="Ubuntu" font-size="11" font-weight="400" font-style="normal" 
>
</g>

<g fill="none" stroke="#000000" stroke-opacity="1" stroke-width="1" stroke-linecap="round" stroke-linejoin="round" transform="matrix(1.00275,0,0,1.00275,0,0)"
font-family="Ubuntu" font-size="11" font-weight="400" font-style="normal" 
>
<polyline fill="none" vector-effect="none" points="45.5,371.5 51.5,371.5 " />
<polyline fill="none" vector-effect="none" points="704.5,371.5 698.5,371.5 " />
</g>

<g fill="none" stroke="#000000" stroke-opacity="1" stroke-width="1" stroke-linecap="square" stroke-linejoin="bevel" transform="matrix(1.00275,0,0,1.00275,0,0)"
font-family="Ubuntu" font-size="11" font-weight="400" font-style="normal" 
>
</g>

<g fill="none" stroke="#000000" stroke-opacity="1" stroke-width="1" stroke-linecap="square" stroke-linejoin="bevel" transform="matrix(1.00275,0,0,1.00275,28.0771,377.537)"
font-family="Ubuntu" font-size="11" font-weight="400" font-style="normal" 
>
</g>

<g fill="none" stroke="#000000" stroke-opacity="1" stroke-width="1" stroke-linecap="square" stroke-linejoin="bevel" transform="matrix(1.00275,0,0,1.00275,28.0771,377.537)"
font-family="Ubuntu" font-size="11" font-weight="400" font-style="normal" 
>
</g>

<g fill="none" stroke="#000000" stroke-opacity="1" stroke-width="1" stroke-linecap="square" stroke-linejoin="bevel" transform="matrix(1.00275,0,0,1.00275,28.0771,377.537)"
font-family="Ubuntu" font-size="11" font-weight="400" font-style="normal" 
>
</g>

<g fill="none" stroke="#000000" stroke-opacity="1" stroke-width="1" stroke-linecap="square" stroke-linejoin="bevel" transform="matrix(1.00275,0,0,1.00275,28.0771,377.537)"
font-family="Ubuntu" font-size="11" font-weight="400" font-style="normal" 
>
</g>

<g fill="none" stroke="#000000" stroke-opacity="1" stroke-width="1" stroke-linecap="square" stroke-linejoin="bevel" transform="matrix(1.00275,0,0,1.00275,28.0771,377.537)"
font-family="Ubuntu" font-size="11" font-weight="400" font-style="normal" 
>
</g>

<g fill="none" stroke="#000000" stroke-opacity="1" stroke-width="1" stroke-linecap="square" stroke-linejoin="bevel" transform="matrix(1.00275,0,0,1.00275,28.0771,377.537)"
font-family="Sans" font-size="9" font-weight="400" font-style="normal" 
>
<text fill="#000000" fill-opacity="1" stroke="none" xml:space="preserve" x="0" y="0" font-family="Sans" font-size="9" font-weight="400" font-style="normal" 
 >-1</text>
</g>

<g fill="none" stroke="#000000" stroke-opacity="1" stroke-width="1" stroke-linecap="square" stroke-linejoin="bevel" transform="matrix(1.00275,0,0,1.00275,28.0771,377.537)"
font-family="Ubuntu" font-size="11" font-weight="400" font-style="normal" 
>
</g>

<g fill="none" stroke="#000000" stroke-opacity="1" stroke-width="1" stroke-linecap="square" stroke-linejoin="bevel" transform="matrix(1.00275,0,0,1.00275,0,0)"
font-family="Ubuntu" font-size="11" font-weight="400" font-style="normal" 
>
</g>

<g fill="none" stroke="#000000" stroke-opacity="1" stroke-width="1" stroke-linecap="round" stroke-linejoin="round" transform="matrix(1.00275,0,0,1.00275,0,0)"
font-family="Ubuntu" font-size="11" font-weight="400" font-style="normal" 
>
<polyline fill="none" vector-effect="none" points="45.5,300.5 51.5,300.5 " />
<polyline fill="none" vector-effect="none" points="704.5,300.5 698.5,300.5 " />
</g>

<g fill="none" stroke="#000000" stroke-opacity="1" stroke-width="1" stroke-linecap="square" stroke-linejoin="bevel" transform="matrix(1.00275,0,0,1.00275,0,0)"
font-family="Ubuntu" font-size="11" font-weight="400" font-style="normal" 
>
</g>

<g fill="none" stroke="#000000" stroke-opacity="1" stroke-width="1" stroke-linecap="square" stroke-linejoin="bevel" transform="matrix(1.00275,0,0,1.00275,16.0441,305.339)"
font-family="Ubuntu" font-size="11" font-weight="400" font-style="normal" 
>
</g>

<g fill="none" stroke="#000000" stroke-opacity="1" stroke-width="1" stroke-linecap="square" stroke-linejoin="bevel" transform="matrix(1.00275,0,0,1.00275,16.0441,305.339)"
font-family="Ubuntu" font-size="11" font-weight="400" font-style="normal" 
>
</g>

<g fill="none" stroke="#000000" stroke-opacity="1" stroke-width="1" stroke-linecap="square" stroke-linejoin="bevel" transform="matrix(1.00275,0,0,1.00275,16.0441,305.339)"
font-family="Ubuntu" font-size="11" font-weight="400" font-style="normal" 
>
</g>

<g fill="none" stroke="#000000" stroke-opacity="1" stroke-width="1" stroke-linecap="square" stroke-linejoin="bevel" transform="matrix(1.00275,0,0,1.00275,16.0441,305.339)"
font-family="Ubuntu" font-size="11" font-weight="400" font-style="normal" 
>
</g>

<g fill="none" stroke="#000000" stroke-opacity="1" stroke-width="1" stroke-linecap="square" stroke-linejoin="bevel" transform="matrix(1.00275,0,0,1.00275,16.0441,305.339)"
font-family="Ubuntu" font-size="11" font-weight="400" font-style="normal" 
>
</g>

<g fill="none" stroke="#000000" stroke-opacity="1" stroke-width="1" stroke-linecap="square" stroke-linejoin="bevel" transform="matrix(1.00275,0,0,1.00275,16.0441,305.339)"
font-family="Sans" font-size="9" font-weight="400" font-style="normal" 
>
<text fill="#000000" fill-opacity="1" stroke="none" xml:space="preserve" x="0" y="0" font-family="Sans" font-size="9" font-weight="400" font-style="normal" 
 >-0.5</text>
</g>

<g fill="none" stroke="#000000" stroke-opacity="1" stroke-width="1" stroke-linecap="square" stroke-linejoin="bevel" transform="matrix(1.00275,0,0,1.00275,16.0441,305.339)"
font-family="Ubuntu" font-size="11" font-weight="400" font-style="normal" 
>
</g>

<g fill="none" stroke="#000000" stroke-opacity="1" stroke-width="1" stroke-linecap="square" stroke-linejoin="bevel" transform="matrix(1.00275,0,0,1.00275,0,0)"
font-family="Ubuntu" font-size="11" font-weight="400" font-style="normal" 
>
</g>

<g fill="none" stroke="#000000" stroke-opacity="1" stroke-width="1" stroke-linecap="round" stroke-linejoin="round" transform="matrix(1.00275,0,0,1.00275,0,0)"
font-family="Ubuntu" font-size="11" font-weight="400" font-style="normal" 
>
<polyline fill="none" vector-effect="none" points="45.5,228.5 51.5,228.5 " />
<polyline fill="none" vector-effect="none" points="704.5,228.5 698.5,228.5 " />
</g>

<g fill="none" stroke="#000000" stroke-opacity="1" stroke-width="1" stroke-linecap="square" stroke-linejoin="bevel" transform="matrix(1.00275,0,0,1.00275,0,0)"
font-family="Ubuntu" font-size="11" font-weight="400" font-style="normal" 
>
</g>

<g fill="none" stroke="#000000" stroke-opacity="1" stroke-width="1" stroke-linecap="square" stroke-linejoin="bevel" transform="matrix(1.00275,0,0,1.00275,28.0771,234.143)"
font-family="Ubuntu" font-size="11" font-weight="400" font-style="normal" 
>
</g>

<g fill="none" stroke="#000000" stroke-opacity="1" stroke-width="1" stroke-linecap="square" stroke-linejoin="bevel" transform="matrix(1.00275,0,0,1.00275,28.0771,234.143)"
font-family="Ubuntu" font-size="11" font-weight="400" font-style="normal" 
>
</g>

<g fill="none" stroke="#000000" stroke-opacity="1" stroke-width="1" stroke-linecap="square" stroke-linejoin="bevel" transform="matrix(1.00275,0,0,1.00275,28.0771,234.143)"
font-family="Ubuntu" font-size="11" font-weight="400" font-style="normal" 
>
</g>

<g fill="none" stroke="#000000" stroke-opacity="1" stroke-width="1" stroke-linecap="square" stroke-linejoin="bevel" transform="matrix(1.00275,0,0,1.00275,28.0771,234.143)"
font-family="Ubuntu" font-size="11" font-weight="400" font-style="normal" 
>
</g>

<g fill="none" stroke="#000000" stroke-opacity="1" stroke-width="1" stroke-linecap="square" stroke-linejoin="bevel" transform="matrix(1.00275,0,0,1.00275,28.0771,234.143)"
font-family="Ubuntu" font-size="11" font-weight="400" font-style="normal" 
>
</g>

<g fill="none" stroke="#000000" stroke-opacity="1" stroke-width="1" stroke-linecap="square" stroke-linejoin="bevel" transform="matrix(1.00275,0,0,1.00275,28.0771,234.143)"
font-family="Sans" font-size="9" font-weight="400" font-style="normal" 
>
<text fill="#000000" fill-opacity="1" stroke="none" xml:space="preserve" x="0" y="0" font-family="Sans" font-size="9" font-weight="400" font-style="normal" 
 > 0</text>
</g>

<g fill="none" stroke="#000000" stroke-opacity="1" stroke-width="1" stroke-linecap="square" stroke-linejoin="bevel" transform="matrix(1.00275,0,0,1.00275,28.0771,234.143)"
font-family="Ubuntu" font-size="11" font-weight="400" font-style="normal" 
>
</g>

<g fill="none" stroke="#000000" stroke-opacity="1" stroke-width="1" stroke-linecap="square" stroke-linejoin="bevel" transform="matrix(1.00275,0,0,1.00275,0,0)"
font-family="Ubuntu" font-size="11" font-weight="400" font-style="normal" 
>
</g>

<g fill="none" stroke="#000000" stroke-opacity="1" stroke-width="1" stroke-linecap="round" stroke-linejoin="round" transform="matrix(1.00275,0,0,1.00275,0,0)"
font-family="Ubuntu" font-size="11" font-weight="400" font-style="normal" 
>
<polyline fill="none" vector-effect="none" points="45.5,157.5 51.5,157.5 " />
<polyline fill="none" vector-effect="none" points="704.5,157.5 698.5,157.5 " />
</g>

<g fill="none" stroke="#000000" stroke-opacity="1" stroke-width="1" stroke-linecap="square" stroke-linejoin="bevel" transform="matrix(1.00275,0,0,1.00275,0,0)"
font-family="Ubuntu" font-size="11" font-weight="400" font-style="normal" 
>
</g>

<g fill="none" stroke="#000000" stroke-opacity="1" stroke-width="1" stroke-linecap="square" stroke-linejoin="bevel" transform="matrix(1.00275,0,0,1.00275,16.0441,162.948)"
font-family="Ubuntu" font-size="11" font-weight="400" font-style="normal" 
>
</g>

<g fill="none" stroke="#000000" stroke-opacity="1" stroke-width="1" stroke-linecap="square" stroke-linejoin="bevel" transform="matrix(1.00275,0,0,1.00275,16.0441,162.948)"
font-family="Ubuntu" font-size="11" font-weight="400" font-style="normal" 
>
</g>

<g fill="none" stroke="#000000" stroke-opacity="1" stroke-width="1" stroke-linecap="square" stroke-linejoin="bevel" transform="matrix(1.00275,0,0,1.00275,16.0441,162.948)"
font-family="Ubuntu" font-size="11" font-weight="400" font-style="normal" 
>
</g>

<g fill="none" stroke="#000000" stroke-opacity="1" stroke-width="1" stroke-linecap="square" stroke-linejoin="bevel" transform="matrix(1.00275,0,0,1.00275,16.0441,162.948)"
font-family="Ubuntu" font-size="11" font-weight="400" font-style="normal" 
>
</g>

<g fill="none" stroke="#000000" stroke-opacity="1" stroke-width="1" stroke-linecap="square" stroke-linejoin="bevel" transform="matrix(1.00275,0,0,1.00275,16.0441,162.948)"
font-family="Ubuntu" font-size="11" font-weight="400" font-style="normal" 
>
</g>

<g fill="none" stroke="#000000" stroke-opacity="1" stroke-width="1" stroke-linecap="square" stroke-linejoin="bevel" transform="matrix(1.00275,0,0,1.00275,16.0441,162.948)"
font-family="Sans" font-size="9" font-weight="400" font-style="normal" 
>
<text fill="#000000" fill-opacity="1" stroke="none" xml:space="preserve" x="0" y="0" font-family="Sans" font-size="9" font-weight="400" font-style="normal" 
 > 0.5</text>
</g>

<g fill="none" stroke="#000000" stroke-opacity="1" stroke-width="1" stroke-linecap="square" stroke-linejoin="bevel" transform="matrix(1.00275,0,0,1.00275,16.0441,162.948)"
font-family="Ubuntu" font-size="11" font-weight="400" font-style="normal" 
>
</g>

<g fill="none" stroke="#000000" stroke-opacity="1" stroke-width="1" stroke-linecap="square" stroke-linejoin="bevel" transform="matrix(1.00275,0,0,1.00275,0,0)"
font-family="Ubuntu" font-size="11" font-weight="400" font-style="normal" 
>
</g>

<g fill="none" stroke="#000000" stroke-opacity="1" stroke-width="1" stroke-linecap="round" stroke-linejoin="round" transform="matrix(1.00275,0,0,1.00275,0,0)"
font-family="Ubuntu" font-size="11" font-weight="400" font-style="normal" 
>
<polyline fill="none" vector-effect="none" points="45.5,86.5 51.5,86.5 " />
<polyline fill="none" vector-effect="none" points="704.5,86.5 698.5,86.5 " />
</g>

<g fill="none" stroke="#000000" stroke-opacity="1" stroke-width="1" stroke-linecap="square" stroke-linejoin="bevel" transform="matrix(1.00275,0,0,1.00275,0,0)"
font-family="Ubuntu" font-size="11" font-weight="400" font-style="normal" 
>
</g>

<g fill="none" stroke="#000000" stroke-opacity="1" stroke-width="1" stroke-linecap="square" stroke-linejoin="bevel" transform="matrix(1.00275,0,0,1.00275,28.0771,90.7493)"
font-family="Ubuntu" font-size="11" font-weight="400" font-style="normal" 
>
</g>

<g fill="none" stroke="#000000" stroke-opacity="1" stroke-width="1" stroke-linecap="square" stroke-linejoin="bevel" transform="matrix(1.00275,0,0,1.00275,28.0771,90.7493)"
font-family="Ubuntu" font-size="11" font-weight="400" font-style="normal" 
>
</g>

<g fill="none" stroke="#000000" stroke-opacity="1" stroke-width="1" stroke-linecap="square" stroke-linejoin="bevel" transform="matrix(1.00275,0,0,1.00275,28.0771,90.7493)"
font-family="Ubuntu" font-size="11" font-weight="400" font-style="normal" 
>
</g>

<g fill="none" stroke="#000000" stroke-opacity="1" stroke-width="1" stroke-linecap="square" stroke-linejoin="bevel" transform="matrix(1.00275,0,0,1.00275,28.0771,90.7493)"
font-family="Ubuntu" font-size="11" font-weight="400" font-style="normal" 
>
</g>

<g fill="none" stroke="#000000" stroke-opacity="1" stroke-width="1" stroke-linecap="square" stroke-linejoin="bevel" transform="matrix(1.00275,0,0,1.00275,28.0771,90.7493)"
font-family="Ubuntu" font-size="11" font-weight="400" font-style="normal" 
>
</g>

<g fill="none" stroke="#000000" stroke-opacity="1" stroke-width="1" stroke-linecap="square" stroke-linejoin="bevel" transform="matrix(1.00275,0,0,1.00275,28.0771,90.7493)"
font-family="Sans" font-size="9" font-weight="400" font-style="normal" 
>
<text fill="#000000" fill-opacity="1" stroke="none" xml:space="preserve" x="0" y="0" font-family="Sans" font-size="9" font-weight="400" font-style="normal" 
 > 1</text>
</g>

<g fill="none" stroke="#000000" stroke-opacity="1" stroke-width="1" stroke-linecap="square" stroke-linejoin="bevel" transform="matrix(1.00275,0,0,1.00275,28.0771,90.7493)"
font-family="Ubuntu" font-size="11" font-weight="400" font-style="normal" 
>
</g>

<g fill="none" stroke="#000000" stroke-opacity="1" stroke-width="1" stroke-linecap="square" stroke-linejoin="bevel" transform="matrix(1.00275,0,0,1.00275,0,0)"
font-family="Ubuntu" font-size="11" font-weight="400" font-style="normal" 
>
</g>

<g fill="none" stroke="#000000" stroke-opacity="1" stroke-width="1" stroke-linecap="round" stroke-linejoin="round" transform="matrix(1.00275,0,0,1.00275,0,0)"
font-family="Ubuntu" font-size="11" font-weight="400" font-style="normal" 
>
<polyline fill="none" vector-effect="none" points="45.5,15.5 51.5,15.5 " />
<polyline fill="none" vector-effect="none" points="704.5,15.5 698.5,15.5 " />
</g>

<g fill="none" stroke="#000000" stroke-opacity="1" stroke-width="1" stroke-linecap="square" stroke-linejoin="bevel" transform="matrix(1.00275,0,0,1.00275,0,0)"
font-family="Ubuntu" font-size="11" font-weight="400" font-style="normal" 
>
</g>

<g fill="none" stroke="#000000" stroke-opacity="1" stroke-width="1" stroke-linecap="square" stroke-linejoin="bevel" transform="matrix(1.00275,0,0,1.00275,16.0441,19.5537)"
font-family="Ubuntu" font-size="11" font-weight="400" font-style="normal" 
>
</g>

<g fill="none" stroke="#000000" stroke-opacity="1" stroke-width="1" stroke-linecap="square" stroke-linejoin="bevel" transform="matrix(1.00275,0,0,1.00275,16.0441,19.5537)"
font-family="Ubuntu" font-size="11" font-weight="400" font-style="normal" 
>
</g>

<g fill="none" stroke="#000000" stroke-opacity="1" stroke-width="1" stroke-linecap="square" stroke-linejoin="bevel" transform="matrix(1.00275,0,0,1.00275,16.0441,19.5537)"
font-family="Ubuntu" font-size="11" font-weight="400" font-style="normal" 
>
</g>

<g fill="none" stroke="#000000" stroke-opacity="1" stroke-width="1" stroke-linecap="square" stroke-linejoin="bevel" transform="matrix(1.00275,0,0,1.00275,16.0441,19.5537)"
font-family="Ubuntu" font-size="11" font-weight="400" font-style="normal" 
>
</g>

<g fill="none" stroke="#000000" stroke-opacity="1" stroke-width="1" stroke-linecap="square" stroke-linejoin="bevel" transform="matrix(1.00275,0,0,1.00275,16.0441,19.5537)"
font-family="Ubuntu" font-size="11" font-weight="400" font-style="normal" 
>
</g>

<g fill="none" stroke="#000000" stroke-opacity="1" stroke-width="1" stroke-linecap="square" stroke-linejoin="bevel" transform="matrix(1.00275,0,0,1.00275,16.0441,19.5537)"
font-family="Sans" font-size="9" font-weight="400" font-style="normal" 
>
<text fill="#000000" fill-opacity="1" stroke="none" xml:space="preserve" x="0" y="0" font-family="Sans" font-size="9" font-weight="400" font-style="normal" 
 > 1.5</text>
</g>

<g fill="none" stroke="#000000" stroke-opacity="1" stroke-width="1" stroke-linecap="square" stroke-linejoin="bevel" transform="matrix(1.00275,0,0,1.00275,16.0441,19.5537)"
font-family="Ubuntu" font-size="11" font-weight="400" font-style="normal" 
>
</g>

<g fill="none" stroke="#000000" stroke-opacity="1" stroke-width="1" stroke-linecap="square" stroke-linejoin="bevel" transform="matrix(1.00275,0,0,1.00275,0,0)"
font-family="Ubuntu" font-size="11" font-weight="400" font-style="normal" 
>
</g>

<g fill="none" stroke="#000000" stroke-opacity="1" stroke-width="1" stroke-linecap="round" stroke-linejoin="round" transform="matrix(1.00275,0,0,1.00275,0,0)"
font-family="Ubuntu" font-size="11" font-weight="400" font-style="normal" 
>
<polyline fill="none" vector-effect="none" points="45.5,442.5 45.5,436.5 " />
<polyline fill="none" vector-effect="none" points="45.5,15.5 45.5,21.5 " />
</g>

<g fill="none" stroke="#000000" stroke-opacity="1" stroke-width="1" stroke-linecap="square" stroke-linejoin="bevel" transform="matrix(1.00275,0,0,1.00275,0,0)"
font-family="Ubuntu" font-size="11" font-weight="400" font-style="normal" 
>
</g>

<g fill="none" stroke="#000000" stroke-opacity="1" stroke-width="1" stroke-linecap="square" stroke-linejoin="bevel" transform="matrix(1.00275,0,0,1.00275,36.6006,463.774)"
font-family="Ubuntu" font-size="11" font-weight="400" font-style="normal" 
>
</g>

<g fill="none" stroke="#000000" stroke-opacity="1" stroke-width="1" stroke-linecap="square" stroke-linejoin="bevel" transform="matrix(1.00275,0,0,1.00275,36.6006,463.774)"
font-family="Ubuntu" font-size="11" font-weight="400" font-style="normal" 
>
</g>

<g fill="none" stroke="#000000" stroke-opacity="1" stroke-width="1" stroke-linecap="square" stroke-linejoin="bevel" transform="matrix(1.00275,0,0,1.00275,36.6006,463.774)"
font-family="Ubuntu" font-size="11" font-weight="400" font-style="normal" 
>
</g>

<g fill="none" stroke="#000000" stroke-opacity="1" stroke-width="1" stroke-linecap="square" stroke-linejoin="bevel" transform="matrix(1.00275,0,0,1.00275,36.6006,463.774)"
font-family="Ubuntu" font-size="11" font-weight="400" font-style="normal" 
>
</g>

<g fill="none" stroke="#000000" stroke-opacity="1" stroke-width="1" stroke-linecap="square" stroke-linejoin="bevel" transform="matrix(1.00275,0,0,1.00275,36.6006,463.774)"
font-family="Ubuntu" font-size="11" font-weight="400" font-style="normal" 
>
</g>

<g fill="none" stroke="#000000" stroke-opacity="1" stroke-width="1" stroke-linecap="square" stroke-linejoin="bevel" transform="matrix(1.00275,0,0,1.00275,36.6006,463.774)"
font-family="Sans" font-size="9" font-weight="400" font-style="normal" 
>
<text fill="#000000" fill-opacity="1" stroke="none" xml:space="preserve" x="0" y="0" font-family="Sans" font-size="9" font-weight="400" font-style="normal" 
 >-10</text>
</g>

<g fill="none" stroke="#000000" stroke-opacity="1" stroke-width="1" stroke-linecap="square" stroke-linejoin="bevel" transform="matrix(1.00275,0,0,1.00275,36.6006,463.774)"
font-family="Ubuntu" font-size="11" font-weight="400" font-style="normal" 
>
</g>

<g fill="none" stroke="#000000" stroke-opacity="1" stroke-width="1" stroke-linecap="square" stroke-linejoin="bevel" transform="matrix(1.00275,0,0,1.00275,0,0)"
font-family="Ubuntu" font-size="11" font-weight="400" font-style="normal" 
>
</g>

<g fill="none" stroke="#000000" stroke-opacity="1" stroke-width="1" stroke-linecap="round" stroke-linejoin="round" transform="matrix(1.00275,0,0,1.00275,0,0)"
font-family="Ubuntu" font-size="11" font-weight="400" font-style="normal" 
>
<polyline fill="none" vector-effect="none" points="210.5,442.5 210.5,436.5 " />
<polyline fill="none" vector-effect="none" points="210.5,15.5 210.5,21.5 " />
</g>

<g fill="none" stroke="#000000" stroke-opacity="1" stroke-width="1" stroke-linecap="square" stroke-linejoin="bevel" transform="matrix(1.00275,0,0,1.00275,0,0)"
font-family="Ubuntu" font-size="11" font-weight="400" font-style="normal" 
>
</g>

<g fill="none" stroke="#000000" stroke-opacity="1" stroke-width="1" stroke-linecap="square" stroke-linejoin="bevel" transform="matrix(1.00275,0,0,1.00275,205.063,463.774)"
font-family="Ubuntu" font-size="11" font-weight="400" font-style="normal" 
>
</g>

<g fill="none" stroke="#000000" stroke-opacity="1" stroke-width="1" stroke-linecap="square" stroke-linejoin="bevel" transform="matrix(1.00275,0,0,1.00275,205.063,463.774)"
font-family="Ubuntu" font-size="11" font-weight="400" font-style="normal" 
>
</g>

<g fill="none" stroke="#000000" stroke-opacity="1" stroke-width="1" stroke-linecap="square" stroke-linejoin="bevel" transform="matrix(1.00275,0,0,1.00275,205.063,463.774)"
font-family="Ubuntu" font-size="11" font-weight="400" font-style="normal" 
>
</g>

<g fill="none" stroke="#000000" stroke-opacity="1" stroke-width="1" stroke-linecap="square" stroke-linejoin="bevel" transform="matrix(1.00275,0,0,1.00275,205.063,463.774)"
font-family="Ubuntu" font-size="11" font-weight="400" font-style="normal" 
>
</g>

<g fill="none" stroke="#000000" stroke-opacity="1" stroke-width="1" stroke-linecap="square" stroke-linejoin="bevel" transform="matrix(1.00275,0,0,1.00275,205.063,463.774)"
font-family="Ubuntu" font-size="11" font-weight="400" font-style="normal" 
>
</g>

<g fill="none" stroke="#000000" stroke-opacity="1" stroke-width="1" stroke-linecap="square" stroke-linejoin="bevel" transform="matrix(1.00275,0,0,1.00275,205.063,463.774)"
font-family="Sans" font-size="9" font-weight="400" font-style="normal" 
>
<text fill="#000000" fill-opacity="1" stroke="none" xml:space="preserve" x="0" y="0" font-family="Sans" font-size="9" font-weight="400" font-style="normal" 
 >-5</text>
</g>

<g fill="none" stroke="#000000" stroke-opacity="1" stroke-width="1" stroke-linecap="square" stroke-linejoin="bevel" transform="matrix(1.00275,0,0,1.00275,205.063,463.774)"
font-family="Ubuntu" font-size="11" font-weight="400" font-style="normal" 
>
</g>

<g fill="none" stroke="#000000" stroke-opacity="1" stroke-width="1" stroke-linecap="square" stroke-linejoin="bevel" transform="matrix(1.00275,0,0,1.00275,0,0)"
font-family="Ubuntu" font-size="11" font-weight="400" font-style="normal" 
>
</g>

<g fill="none" stroke="#000000" stroke-opacity="1" stroke-width="1" stroke-linecap="round" stroke-linejoin="round" transform="matrix(1.00275,0,0,1.00275,0,0)"
font-family="Ubuntu" font-size="11" font-weight="400" font-style="normal" 
>
<polyline fill="none" vector-effect="none" points="375.5,442.5 375.5,436.5 " />
<polyline fill="none" vector-effect="none" points="375.5,15.5 375.5,21.5 " />
</g>

<g fill="none" stroke="#000000" stroke-opacity="1" stroke-width="1" stroke-linecap="square" stroke-linejoin="bevel" transform="matrix(1.00275,0,0,1.00275,0,0)"
font-family="Ubuntu" font-size="11" font-weight="400" font-style="normal" 
>
</g>

<g fill="none" stroke="#000000" stroke-opacity="1" stroke-width="1" stroke-linecap="square" stroke-linejoin="bevel" transform="matrix(1.00275,0,0,1.00275,370.518,463.774)"
font-family="Ubuntu" font-size="11" font-weight="400" font-style="normal" 
>
</g>

<g fill="none" stroke="#000000" stroke-opacity="1" stroke-width="1" stroke-linecap="square" stroke-linejoin="bevel" transform="matrix(1.00275,0,0,1.00275,370.518,463.774)"
font-family="Ubuntu" font-size="11" font-weight="400" font-style="normal" 
>
</g>

<g fill="none" stroke="#000000" stroke-opacity="1" stroke-width="1" stroke-linecap="square" stroke-linejoin="bevel" transform="matrix(1.00275,0,0,1.00275,370.518,463.774)"
font-family="Ubuntu" font-size="11" font-weight="400" font-style="normal" 
>
</g>

<g fill="none" stroke="#000000" stroke-opacity="1" stroke-width="1" stroke-linecap="square" stroke-linejoin="bevel" transform="matrix(1.00275,0,0,1.00275,370.518,463.774)"
font-family="Ubuntu" font-size="11" font-weight="400" font-style="normal" 
>
</g>

<g fill="none" stroke="#000000" stroke-opacity="1" stroke-width="1" stroke-linecap="square" stroke-linejoin="bevel" transform="matrix(1.00275,0,0,1.00275,370.518,463.774)"
font-family="Ubuntu" font-size="11" font-weight="400" font-style="normal" 
>
</g>

<g fill="none" stroke="#000000" stroke-opacity="1" stroke-width="1" stroke-linecap="square" stroke-linejoin="bevel" transform="matrix(1.00275,0,0,1.00275,370.518,463.774)"
font-family="Sans" font-size="9" font-weight="400" font-style="normal" 
>
<text fill="#000000" fill-opacity="1" stroke="none" xml:space="preserve" x="0" y="0" font-family="Sans" font-size="9" font-weight="400" font-style="normal" 
 > 0</text>
</g>

<g fill="none" stroke="#000000" stroke-opacity="1" stroke-width="1" stroke-linecap="square" stroke-linejoin="bevel" transform="matrix(1.00275,0,0,1.00275,370.518,463.774)"
font-family="Ubuntu" font-size="11" font-weight="400" font-style="normal" 
>
</g>

<g fill="none" stroke="#000000" stroke-opacity="1" stroke-width="1" stroke-linecap="square" stroke-linejoin="bevel" transform="matrix(1.00275,0,0,1.00275,0,0)"
font-family="Ubuntu" font-size="11" font-weight="400" font-style="normal" 
>
</g>

<g fill="none" stroke="#000000" stroke-opacity="1" stroke-width="1" stroke-linecap="round" stroke-linejoin="round" transform="matrix(1.00275,0,0,1.00275,0,0)"
font-family="Ubuntu" font-size="11" font-weight="400" font-style="normal" 
>
<polyline fill="none" vector-effect="none" points="540.5,442.5 540.5,436.5 " />
<polyline fill="none" vector-effect="none" points="540.5,15.5 540.5,21.5 " />
</g>

<g fill="none" stroke="#000000" stroke-opacity="1" stroke-width="1" stroke-linecap="square" stroke-linejoin="bevel" transform="matrix(1.00275,0,0,1.00275,0,0)"
font-family="Ubuntu" font-size="11" font-weight="400" font-style="normal" 
>
</g>

<g fill="none" stroke="#000000" stroke-opacity="1" stroke-width="1" stroke-linecap="square" stroke-linejoin="bevel" transform="matrix(1.00275,0,0,1.00275,535.972,463.774)"
font-family="Ubuntu" font-size="11" font-weight="400" font-style="normal" 
>
</g>

<g fill="none" stroke="#000000" stroke-opacity="1" stroke-width="1" stroke-linecap="square" stroke-linejoin="bevel" transform="matrix(1.00275,0,0,1.00275,535.972,463.774)"
font-family="Ubuntu" font-size="11" font-weight="400" font-style="normal" 
>
</g>

<g fill="none" stroke="#000000" stroke-opacity="1" stroke-width="1" stroke-linecap="square" stroke-linejoin="bevel" transform="matrix(1.00275,0,0,1.00275,535.972,463.774)"
font-family="Ubuntu" font-size="11" font-weight="400" font-style="normal" 
>
</g>

<g fill="none" stroke="#000000" stroke-opacity="1" stroke-width="1" stroke-linecap="square" stroke-linejoin="bevel" transform="matrix(1.00275,0,0,1.00275,535.972,463.774)"
font-family="Ubuntu" font-size="11" font-weight="400" font-style="normal" 
>
</g>

<g fill="none" stroke="#000000" stroke-opacity="1" stroke-width="1" stroke-linecap="square" stroke-linejoin="bevel" transform="matrix(1.00275,0,0,1.00275,535.972,463.774)"
font-family="Ubuntu" font-size="11" font-weight="400" font-style="normal" 
>
</g>

<g fill="none" stroke="#000000" stroke-opacity="1" stroke-width="1" stroke-linecap="square" stroke-linejoin="bevel" transform="matrix(1.00275,0,0,1.00275,535.972,463.774)"
font-family="Sans" font-size="9" font-weight="400" font-style="normal" 
>
<text fill="#000000" fill-opacity="1" stroke="none" xml:space="preserve" x="0" y="0" font-family="Sans" font-size="9" font-weight="400" font-style="normal" 
 > 5</text>
</g>

<g fill="none" stroke="#000000" stroke-opacity="1" stroke-width="1" stroke-linecap="square" stroke-linejoin="bevel" transform="matrix(1.00275,0,0,1.00275,535.972,463.774)"
font-family="Ubuntu" font-size="11" font-weight="400" font-style="normal" 
>
</g>

<g fill="none" stroke="#000000" stroke-opacity="1" stroke-width="1" stroke-linecap="square" stroke-linejoin="bevel" transform="matrix(1.00275,0,0,1.00275,0,0)"
font-family="Ubuntu" font-size="11" font-weight="400" font-style="normal" 
>
</g>

<g fill="none" stroke="#000000" stroke-opacity="1" stroke-width="1" stroke-linecap="round" stroke-linejoin="round" transform="matrix(1.00275,0,0,1.00275,0,0)"
font-family="Ubuntu" font-size="11" font-weight="400" font-style="normal" 
>
<polyline fill="none" vector-effect="none" points="704.5,442.5 704.5,436.5 " />
<polyline fill="none" vector-effect="none" points="704.5,15.5 704.5,21.5 " />
</g>

<g fill="none" stroke="#000000" stroke-opacity="1" stroke-width="1" stroke-linecap="square" stroke-linejoin="bevel" transform="matrix(1.00275,0,0,1.00275,0,0)"
font-family="Ubuntu" font-size="11" font-weight="400" font-style="normal" 
>
</g>

<g fill="none" stroke="#000000" stroke-opacity="1" stroke-width="1" stroke-linecap="square" stroke-linejoin="bevel" transform="matrix(1.00275,0,0,1.00275,697.416,463.774)"
font-family="Ubuntu" font-size="11" font-weight="400" font-style="normal" 
>
</g>

<g fill="none" stroke="#000000" stroke-opacity="1" stroke-width="1" stroke-linecap="square" stroke-linejoin="bevel" transform="matrix(1.00275,0,0,1.00275,697.416,463.774)"
font-family="Ubuntu" font-size="11" font-weight="400" font-style="normal" 
>
</g>

<g fill="none" stroke="#000000" stroke-opacity="1" stroke-width="1" stroke-linecap="square" stroke-linejoin="bevel" transform="matrix(1.00275,0,0,1.00275,697.416,463.774)"
font-family="Ubuntu" font-size="11" font-weight="400" font-style="normal" 
>
</g>

<g fill="none" stroke="#000000" stroke-opacity="1" stroke-width="1" stroke-linecap="square" stroke-linejoin="bevel" transform="matrix(1.00275,0,0,1.00275,697.416,463.774)"
font-family="Ubuntu" font-size="11" font-weight="400" font-style="normal" 
>
</g>

<g fill="none" stroke="#000000" stroke-opacity="1" stroke-width="1" stroke-linecap="square" stroke-linejoin="bevel" transform="matrix(1.00275,0,0,1.00275,697.416,463.774)"
font-family="Ubuntu" font-size="11" font-weight="400" font-style="normal" 
>
</g>

<g fill="none" stroke="#000000" stroke-opacity="1" stroke-width="1" stroke-linecap="square" stroke-linejoin="bevel" transform="matrix(1.00275,0,0,1.00275,697.416,463.774)"
font-family="Sans" font-size="9" font-weight="400" font-style="normal" 
>
<text fill="#000000" fill-opacity="1" stroke="none" xml:space="preserve" x="0" y="0" font-family="Sans" font-size="9" font-weight="400" font-style="normal" 
 > 10</text>
</g>

<g fill="none" stroke="#000000" stroke-opacity="1" stroke-width="1" stroke-linecap="square" stroke-linejoin="bevel" transform="matrix(1.00275,0,0,1.00275,697.416,463.774)"
font-family="Ubuntu" font-size="11" font-weight="400" font-style="normal" 
>
</g>

<g fill="none" stroke="#000000" stroke-opacity="1" stroke-width="1" stroke-linecap="square" stroke-linejoin="bevel" transform="matrix(1.00275,0,0,1.00275,0,0)"
font-family="Ubuntu" font-size="11" font-weight="400" font-style="normal" 
>
</g>

<g fill="none" stroke="#000000" stroke-opacity="1" stroke-width="1" stroke-linecap="round" stroke-linejoin="round" transform="matrix(1.00275,0,0,1.00275,0,0)"
font-family="Ubuntu" font-size="11" font-weight="400" font-style="normal" 
>
<polyline fill="none" vector-effect="none" points="45.5,15.5 45.5,442.5 704.5,442.5 704.5,15.5 45.5,15.5 " />
</g>

<g fill="none" stroke="#000000" stroke-opacity="1" stroke-width="1" stroke-linecap="square" stroke-linejoin="bevel" transform="matrix(1.00275,0,0,1.00275,0,0)"
font-family="Ubuntu" font-size="11" font-weight="400" font-style="normal" 
>
</g>

<g fill="none" stroke="#000000" stroke-opacity="1" stroke-width="1" stroke-linecap="square" stroke-linejoin="bevel" transform="matrix(1.00275,0,0,1.00275,600.227,17.5482)"
font-family="Ubuntu" font-size="11" font-weight="400" font-style="normal" 
>
</g>

<g fill="none" stroke="#000000" stroke-opacity="1" stroke-width="1" stroke-linecap="square" stroke-linejoin="bevel" transform="matrix(1.00275,0,0,1.00275,600.227,17.5482)"
font-family="Ubuntu" font-size="11" font-weight="400" font-style="normal" 
>
</g>

<g fill="none" stroke="#000000" stroke-opacity="1" stroke-width="1" stroke-linecap="square" stroke-linejoin="bevel" transform="matrix(1.00275,0,0,1.00275,600.227,17.5482)"
font-family="Ubuntu" font-size="11" font-weight="400" font-style="normal" 
>
</g>

<g fill="none" stroke="#000000" stroke-opacity="1" stroke-width="1" stroke-linecap="square" stroke-linejoin="bevel" transform="matrix(1.00275,0,0,1.00275,600.227,17.5482)"
font-family="Ubuntu" font-size="11" font-weight="400" font-style="normal" 
>
<text fill="#000000" fill-opacity="1" stroke="none" xml:space="preserve" x="4" y="16" font-family="Sans" font-size="9" font-weight="400" font-style="normal" 
 >atan(x)</text>
</g>

<g fill="none" stroke="#000000" stroke-opacity="1" stroke-width="1" stroke-linecap="square" stroke-linejoin="bevel" transform="matrix(1.00275,0,0,1.00275,600.227,17.5482)"
font-family="Ubuntu" font-size="11" font-weight="400" font-style="normal" 
>
</g>

<g fill="none" stroke="#000000" stroke-opacity="1" stroke-width="1" stroke-linecap="square" stroke-linejoin="bevel" transform="matrix(1,0,0,1,0,0)"
font-family="Ubuntu" font-size="11" font-weight="400" font-style="normal" 
>
</g>

<g fill="none" stroke="#000000" stroke-opacity="1" stroke-width="1" stroke-linecap="square" stroke-linejoin="bevel" transform="matrix(1.00275,0,0,1.00275,600.227,17.5482)"
font-family="Ubuntu" font-size="11" font-weight="400" font-style="normal" 
>
</g>

<g fill="none" stroke="#000000" stroke-opacity="1" stroke-width="1" stroke-linecap="square" stroke-linejoin="bevel" transform="matrix(1.00275,0,0,1.00275,600.227,17.5482)"
font-family="Ubuntu" font-size="11" font-weight="400" font-style="normal" 
>
</g>

<g fill="none" stroke="#000000" stroke-opacity="1" stroke-width="1" stroke-linecap="square" stroke-linejoin="bevel" transform="matrix(1.00275,0,0,1.00275,600.227,17.5482)"
font-family="Ubuntu" font-size="11" font-weight="400" font-style="normal" 
>
</g>

<g fill="none" stroke="#000000" stroke-opacity="1" stroke-width="1" stroke-linecap="square" stroke-linejoin="bevel" transform="matrix(1.00275,0,0,1.00275,0,0)"
font-family="Ubuntu" font-size="11" font-weight="400" font-style="normal" 
>
</g>

<g fill="none" stroke="#9400d3" stroke-opacity="1" stroke-width="1" stroke-linecap="round" stroke-linejoin="round" transform="matrix(1.00275,0,0,1.00275,0,0)"
font-family="Ubuntu" font-size="11" font-weight="400" font-style="normal" 
>
<path vector-effect="none" fill-rule="evenodd" d="M656.5,28.5 L690.5,28.5"/>
</g>

<g fill="none" stroke="#000000" stroke-opacity="1" stroke-width="1" stroke-linecap="square" stroke-linejoin="bevel" transform="matrix(1.00275,0,0,1.00275,0,0)"
font-family="Ubuntu" font-size="11" font-weight="400" font-style="normal" 
>
</g>

<g fill="none" stroke="#000000" stroke-opacity="1" stroke-width="1" stroke-linecap="square" stroke-linejoin="bevel" transform="matrix(1.00275,0,0,1.00275,0,0)"
font-family="Ubuntu" font-size="11" font-weight="400" font-style="normal" 
>
</g>

<g fill="none" stroke="#000000" stroke-opacity="1" stroke-width="1" stroke-linecap="square" stroke-linejoin="bevel" transform="matrix(1.00275,0,0,1.00275,0,0)"
font-family="Ubuntu" font-size="11" font-weight="400" font-style="normal" 
>
</g>

<g fill="none" stroke="#000000" stroke-opacity="1" stroke-width="1" stroke-linecap="square" stroke-linejoin="bevel" transform="matrix(1.00275,0,0,1.00275,0,0)"
font-family="Ubuntu" font-size="11" font-weight="400" font-style="normal" 
>
</g>

<g fill="none" stroke="#9400d3" stroke-opacity="1" stroke-width="1" stroke-linecap="round" stroke-linejoin="round" transform="matrix(1.00275,0,0,1.00275,0,0)"
font-family="Ubuntu" font-size="11" font-weight="400" font-style="normal" 
>
<polyline fill="none" vector-effect="none" points="45.5,438.8 45.5,438.8 52.2,438.5 58.8,438.2 65.5,437.9 72.1,437.5 78.8,437.2 85.5,436.8 92.1,436.5 98.8,436.1 105.4,435.7 112.1,435.2 118.8,434.8 125.4,434.3 132.1,433.8 138.7,433.2 145.4,432.7 152.1,432.1 158.7,431.4 165.4,430.8 172.1,430 178.7,429.3 185.4,428.5 192,427.6 198.7,426.7 205.4,425.7 212,424.6 218.7,423.4 225.3,422.1 232,420.7 238.7,419.2 245.3,417.5 252,415.7 258.6,413.7 265.3,411.4 272,408.9 278.6,406.1 285.3,402.9 291.9,399.2 298.6,395 305.3,390.2 311.9,384.5 318.6,377.8 325.2,369.8 331.9,360.2 338.6,348.5 345.2,334.2 351.9,316.7 358.5,295.7 365.2,270.9 371.9,243.3 378.5,214.6 385.2,187 391.9,162.2 398.5,141.2 405.2,123.7 411.8,109.4 418.5,97.7 425.2,88.1 431.8,80.1 438.5,73.4 445.1,67.7 451.8,62.9 458.5,58.7 465.1,55 471.8,51.8 478.4,49 485.1,46.5 491.8,44.2 498.4,42.2 505.1,40.4 511.7,38.7 518.4,37.2 525.1,35.8 531.7,34.5 538.4,33.3 545,32.2 551.7,31.2 558.4,30.3 565,29.4 571.7,28.6 578.3,27.9 585,27.1 591.7,26.5 598.3,25.8 605,25.2 611.7,24.7 618.3,24.1 625,23.6 631.6,23.1 638.3,22.7 645,22.2 651.6,21.8 658.3,21.4 664.9,21.1 671.6,20.7 678.3,20.4 684.9,20 691.6,19.7 698.2,19.4 704.9,19.1 " />
</g>

<g fill="none" stroke="#000000" stroke-opacity="1" stroke-width="1" stroke-linecap="square" stroke-linejoin="bevel" transform="matrix(1.00275,0,0,1.00275,0,0)"
font-family="Ubuntu" font-size="11" font-weight="400" font-style="normal" 
>
</g>

<g fill="none" stroke="#000000" stroke-opacity="1" stroke-width="1" stroke-linecap="square" stroke-linejoin="bevel" transform="matrix(1.00275,0,0,1.00275,0,0)"
font-family="Ubuntu" font-size="11" font-weight="400" font-style="normal" 
>
</g>

<g fill="none" stroke="#000000" stroke-opacity="1" stroke-width="1" stroke-linecap="round" stroke-linejoin="round" transform="matrix(1.00275,0,0,1.00275,0,0)"
font-family="Ubuntu" font-size="11" font-weight="400" font-style="normal" 
>
<polyline fill="none" vector-effect="none" points="45.5,15.5 45.5,442.5 704.5,442.5 704.5,15.5 45.5,15.5 " />
</g>

<g fill="none" stroke="#000000" stroke-opacity="1" stroke-width="1" stroke-linecap="square" stroke-linejoin="bevel" transform="matrix(1.00275,0,0,1.00275,0,0)"
font-family="Ubuntu" font-size="11" font-weight="400" font-style="normal" 
>
</g>

<g fill="none" stroke="#000000" stroke-opacity="1" stroke-width="1" stroke-linecap="square" stroke-linejoin="bevel" transform="matrix(1,0,0,1,0,0)"
font-family="Ubuntu" font-size="11" font-weight="400" font-style="normal" 
>
</g>
</g>
</svg>
